# Blender 3.5.0
# www.blender.org
o triangle_inside_red_triangle
v 1.692050 0.000000 1.000000
v 0.020000 0.000000 0.034642
v 0.020000 0.000000 1.965358
v 0.080000 0.060000 0.138565
v 1.572050 0.060000 1.000000
v 0.080000 0.060000 1.861435
vn -0.0000 1.0000 -0.0000
vn 0.3536 0.7071 -0.6124
vn -0.7071 0.7071 -0.0000
vn 0.3536 0.7071 0.6124
vn -0.0000 -1.0000 -0.0000
vt 0.000000 0.000000
vt 0.000000 0.000000
vt 0.000000 0.000000
vt 0.000000 0.000000
vt 0.000000 0.000000
vt 0.000000 0.000000
s 0
f 4/4/1 6/6/1 5/5/1
f 5/5/2 2/2/2 4/4/2
f 4/4/3 3/3/3 6/6/3
f 6/6/4 1/1/4 5/5/4
f 2/2/5 1/1/5 3/3/5
f 5/5/2 1/1/2 2/2/2
f 4/4/3 2/2/3 3/3/3
f 6/6/4 3/3/4 1/1/4
